<?xml version="1.0" encoding="UTF-8" standalone="no"?>
<!-- Created with Inkscape (http://www.inkscape.org/) -->

<svg
   version="1.1"
   id="svg9"
   xml:space="preserve"
   width="793.70135"
   height="1122.52"
   viewBox="0 0 793.70135 1122.52"
   sodipodi:docname="heaven logo.svg"
   inkscape:version="1.1.1 (3bf5ae0d25, 2021-09-20)"
   xmlns:inkscape="http://www.inkscape.org/namespaces/inkscape"
   xmlns:sodipodi="http://sodipodi.sourceforge.net/DTD/sodipodi-0.dtd"
   xmlns="http://www.w3.org/2000/svg"
   xmlns:svg="http://www.w3.org/2000/svg"><defs
     id="defs13"><clipPath
       clipPathUnits="userSpaceOnUse"
       id="clipPath25"><path
         d="M 0,841.89 H 595.276 V 0 H 0 Z"
         id="path23" /></clipPath></defs><sodipodi:namedview
     id="namedview11"
     pagecolor="#ffffff"
     bordercolor="#666666"
     borderopacity="1.0"
     inkscape:pageshadow="2"
     inkscape:pageopacity="0.0"
     inkscape:pagecheckerboard="0"
     showgrid="false"
     inkscape:zoom="0.70710678"
     inkscape:cx="621.54686"
     inkscape:cy="638.51742"
     inkscape:window-width="1920"
     inkscape:window-height="1017"
     inkscape:window-x="1912"
     inkscape:window-y="-8"
     inkscape:window-maximized="1"
     inkscape:current-layer="g15" /><g
     id="g15"
     inkscape:groupmode="layer"
     inkscape:label="heaven logo"
     transform="matrix(1.3333333,0,0,-1.3333333,0,1122.52)"><path
       d="m 561.44231,199.81366 h -174.361 v 174.361 h 174.361 z"
       style="fill:#1d1d1b;fill-opacity:1;fill-rule:nonzero;stroke:none"
       id="path17" /><g
       id="g27"
       transform="translate(324.7187,764.9781)"><path
         d="m 0,0 c 0,-17.038 -13.812,-30.851 -30.851,-30.851 -17.038,0 -30.851,13.813 -30.851,30.851 0,17.039 13.813,30.851 30.851,30.851 C -13.812,30.851 0,17.039 0,0"
         style="fill:#1d1d1b;fill-opacity:1;fill-rule:nonzero;stroke:none"
         id="path29" /></g><g
       id="g31"
       transform="translate(322.7471,764.9781)"><path
         d="m 0,0 c 0,-15.949 -12.93,-28.878 -28.879,-28.878 -15.949,0 -28.878,12.929 -28.878,28.878 0,15.949 12.929,28.879 28.878,28.879 C -12.93,28.879 0,15.949 0,0"
         style="fill:#e52520;fill-opacity:1;fill-rule:nonzero;stroke:none"
         id="path33" /></g><g
       id="g35"
       transform="translate(274.0532,752.1129)"><path
         d="M 0,0 H 4.295 L 12.035,16.665 19.979,0 h 4.382 l -12.36,25.731 z"
         style="fill:#ffffff;fill-opacity:1;fill-rule:nonzero;stroke:none"
         id="path37" /></g><g
       id="g39"
       transform="translate(313.4629,777.8439)"><path
         d="M 0,0 H -4.296 L -12.036,-16.665 -19.979,0 h -4.382 l 12.359,-25.731 z"
         style="fill:#1d1d1b;fill-opacity:1;fill-rule:nonzero;stroke:none"
         id="path41" /></g><g
       id="g43"
       transform="translate(365.4736,285.9532)"><path
         d="m 0,0 c 0,-41.224 -33.418,-74.642 -74.642,-74.642 -41.223,0 -74.642,33.418 -74.642,74.642 0,41.224 33.419,74.643 74.642,74.643 C -33.418,74.643 0,41.224 0,0"
         style="fill:#1d1d1b;fill-opacity:1;fill-rule:nonzero;stroke:none"
         id="path45" /></g><g
       id="g47"
       transform="translate(360.7021,285.9532)"><path
         d="m 0,0 c 0,-38.588 -31.282,-69.869 -69.87,-69.869 -38.588,0 -69.87,31.281 -69.87,69.869 0,38.588 31.282,69.87 69.87,69.87 C -31.282,69.87 0,38.588 0,0"
         style="fill:#e52520;fill-opacity:1;fill-rule:nonzero;stroke:none"
         id="path49" /></g><g
       id="g51"
       transform="translate(242.8906,254.8253)"><path
         d="M 0,0 H 10.393 L 29.119,40.319 48.338,0 H 58.939 L 29.037,62.256 Z"
         style="fill:#ffffff;fill-opacity:1;fill-rule:nonzero;stroke:none"
         id="path53" /></g><g
       id="g55"
       transform="translate(338.2393,317.0812)"><path
         d="M 0,0 H -10.394 L -29.119,-40.319 -48.338,0 H -58.94 l 29.903,-62.256 z"
         style="fill:#1d1d1b;fill-opacity:1;fill-rule:nonzero;stroke:none"
         id="path57" /></g><g
       id="g370"
       transform="translate(-191.42054,-391.68723)"><g
         id="g59"
         transform="translate(297.4619,519.2545)"><path
           d="m 0,0 c -16.678,0 -30.199,13.521 -30.199,30.199 0,16.678 13.521,30.199 30.199,30.199 16.679,0 30.199,-13.521 30.199,-30.199 C 30.199,13.521 16.679,0 0,0 m 0.231,62.461 c -17.817,0 -32.262,-14.444 -32.262,-32.262 0,-17.818 14.445,-32.262 32.262,-32.262 17.818,0 32.262,14.444 32.262,32.262 0,17.818 -14.444,32.262 -32.262,32.262"
           style="fill:#1d1d1b;fill-opacity:1;fill-rule:nonzero;stroke:none"
           id="path61" /></g><g
         id="g63"
         transform="translate(277.0874,535.9996)"><path
           d="M 0,0 H 4.492 L 12.585,17.427 20.893,0 h 4.582 L 12.55,26.908 Z"
           style="fill:#1d1d1b;fill-opacity:1;fill-rule:nonzero;stroke:none"
           id="path65" /></g><g
         id="g67"
         transform="translate(318.2988,562.9078)"><path
           d="M 0,0 H -4.492 L -12.586,-17.427 -20.893,0 h -4.582 l 12.925,-26.908 z"
           style="fill:#1d1d1b;fill-opacity:1;fill-rule:nonzero;stroke:none"
           id="path69" /></g></g><g
       id="g378"
       inkscape:export-filename="D:\Tomáš\Škola\MME\4.ročník\Kampaň_Heaven\Heaven_podklady\g378.png"
       inkscape:export-xdpi="96"
       inkscape:export-ydpi="96"><g
         id="g71"
         transform="translate(109.3804,216.3751)"><path
           d="m 0,0 c -38.427,0 -69.579,31.151 -69.579,69.578 0,38.428 31.152,69.579 69.579,69.579 38.427,0 69.578,-31.151 69.578,-69.579 C 69.578,31.151 38.427,0 0,0 m 0.532,143.909 c -41.052,0 -74.331,-33.279 -74.331,-74.331 0,-41.052 33.279,-74.331 74.331,-74.331 41.051,0 74.331,33.279 74.331,74.331 0,41.052 -33.28,74.331 -74.331,74.331"
           style="fill:#1d1d1b;fill-opacity:1;fill-rule:nonzero;stroke:none"
           id="path73" /></g><g
         id="g75"
         transform="translate(62.4365,254.9552)"><path
           d="M 0,0 H 10.35 L 28.998,40.151 48.136,0 H 58.694 L 28.916,61.996 Z"
           style="fill:#1d1d1b;fill-opacity:1;fill-rule:nonzero;stroke:none"
           id="path77" /></g><g
         id="g79"
         transform="translate(157.3882,316.9513)"><path
           d="M 0,0 H -10.35 L -28.998,-40.151 -48.137,0 h -10.557 l 29.778,-61.996 z"
           style="fill:#1d1d1b;fill-opacity:1;fill-rule:nonzero;stroke:none"
           id="path81" /></g></g><g
       id="g403"
       inkscape:export-filename="D:\Tomáš\Škola\MME\4.ročník\Kampaň_Heaven\Heaven_podklady\g403.svg"
       inkscape:export-xdpi="96"
       inkscape:export-ydpi="96"><g
         id="g83"
         transform="translate(472.9551,216.3751)"><path
           d="m 0,0 c -38.428,0 -69.579,31.151 -69.579,69.578 0,38.428 31.151,69.579 69.579,69.579 38.427,0 69.578,-31.151 69.578,-69.579 C 69.578,31.151 38.427,0 0,0 m 0.531,143.909 c -41.052,0 -74.33,-33.279 -74.33,-74.331 0,-41.052 33.278,-74.331 74.33,-74.331 41.052,0 74.331,33.279 74.331,74.331 0,41.052 -33.279,74.331 -74.331,74.331"
           style="fill:#ffffff;fill-opacity:1;fill-rule:nonzero;stroke:none"
           id="path85" /></g><g
         id="g87"
         transform="translate(426.0107,254.9552)"><path
           d="M 0,0 H 10.351 L 28.998,40.151 48.137,0 H 58.694 L 28.916,61.996 Z"
           style="fill:#ffffff;fill-opacity:1;fill-rule:nonzero;stroke:none"
           id="path89" /></g><g
         id="g91"
         transform="translate(520.9629,316.9513)"><path
           d="M 0,0 H -10.351 L -28.998,-40.151 -48.137,0 h -10.557 l 29.778,-61.996 z"
           style="fill:#ffffff;fill-opacity:1;fill-rule:nonzero;stroke:none"
           id="path93" /></g></g><g
       id="g395"
       inkscape:export-filename="D:\Tomáš\Škola\MME\4.ročník\Kampaň_Heaven\Heaven_podklady\g395.png"
       inkscape:export-xdpi="96"
       inkscape:export-ydpi="96"><path
         d="m 168.791,497.775 h 63.124 v -10.456 h -63.124 z"
         style="fill:#1d1d1b;fill-opacity:1;fill-rule:nonzero;stroke:none"
         id="path95" /><path
         d="m 168.791,436.346 h 63.124 V 425.89 h -63.124 z"
         style="fill:#1d1d1b;fill-opacity:1;fill-rule:nonzero;stroke:none"
         id="path97" /><path
         d="m 361.523,497.808 h 63.153 v -10.46 h -63.153 z"
         style="fill:#1d1d1b;fill-opacity:1;fill-rule:nonzero;stroke:none"
         id="path99" /><path
         d="m 361.523,436.351 h 63.153 V 425.89 h -63.153 z"
         style="fill:#1d1d1b;fill-opacity:1;fill-rule:nonzero;stroke:none"
         id="path101" /><path
         d="M 107.418,425.89 H 96.971 v 71.823 h 10.447 z"
         style="fill:#1d1d1b;fill-opacity:1;fill-rule:nonzero;stroke:none"
         id="path103" /><path
         d="m 159.818,425.89 h -10.447 v 71.823 h 10.447 z"
         style="fill:#1d1d1b;fill-opacity:1;fill-rule:nonzero;stroke:none"
         id="path105" /><path
         d="m 105.49,466.97 h 52.835 V 456.523 H 105.49 Z"
         style="fill:#1d1d1b;fill-opacity:1;fill-rule:nonzero;stroke:none"
         id="path107" /><path
         d="m 168.791,467.06 h 63.124 v -10.456 h -63.124 z"
         style="fill:#1d1d1b;fill-opacity:1;fill-rule:nonzero;stroke:none"
         id="path109" /><path
         d="m 361.523,467.08 h 63.153 v -10.461 h -63.153 z"
         style="fill:#1d1d1b;fill-opacity:1;fill-rule:nonzero;stroke:none"
         id="path111" /><g
         id="g113"
         transform="translate(238.5815,425.8898)"><path
           d="M 0,0 H 11.993 L 33.602,46.526 55.779,0 H 68.013 L 33.507,71.839 Z"
           style="fill:#1d1d1b;fill-opacity:1;fill-rule:nonzero;stroke:none"
           id="path115" /></g><g
         id="g117"
         transform="translate(354.2344,497.7291)"><path
           d="M 0,0 H -11.993 L -33.603,-46.526 -55.779,0 h -12.235 l 34.506,-71.839 z"
           style="fill:#1d1d1b;fill-opacity:1;fill-rule:nonzero;stroke:none"
           id="path119" /></g><g
         id="g121"
         transform="translate(446.7031,425.8898)"><path
           d="M 0,0 H -10.88 V 71.916 L 40.937,24.397 V 71.892 H 51.712 V 0.056 l -51.934,46.99 z"
           style="fill:#1d1d1b;fill-opacity:1;fill-rule:nonzero;stroke:none"
           id="path123" /></g></g><path
       d="M 164.966,713.508 H 228.09 V 703.052 H 164.966 Z"
       style="fill:#1d1d1b;fill-opacity:1;fill-rule:nonzero;stroke:none"
       id="path125" /><path
       d="M 164.966,652.079 H 228.09 V 641.623 H 164.966 Z"
       style="fill:#1d1d1b;fill-opacity:1;fill-rule:nonzero;stroke:none"
       id="path127" /><path
       d="m 357.699,713.542 h 63.153 v -10.461 h -63.153 z"
       style="fill:#1d1d1b;fill-opacity:1;fill-rule:nonzero;stroke:none"
       id="path129" /><path
       d="m 357.699,652.085 h 63.153 v -10.461 h -63.153 z"
       style="fill:#1d1d1b;fill-opacity:1;fill-rule:nonzero;stroke:none"
       id="path131" /><path
       d="M 103.594,641.624 H 93.147 v 71.823 h 10.447 z"
       style="fill:#1d1d1b;fill-opacity:1;fill-rule:nonzero;stroke:none"
       id="path133" /><path
       d="m 155.993,641.624 h -10.447 v 71.823 h 10.447 z"
       style="fill:#1d1d1b;fill-opacity:1;fill-rule:nonzero;stroke:none"
       id="path135" /><path
       d="m 101.666,682.703 h 52.835 v -10.447 h -52.835 z"
       style="fill:#1d1d1b;fill-opacity:1;fill-rule:nonzero;stroke:none"
       id="path137" /><path
       d="M 164.966,682.794 H 228.09 V 672.338 H 164.966 Z"
       style="fill:#1d1d1b;fill-opacity:1;fill-rule:nonzero;stroke:none"
       id="path139" /><path
       d="m 357.699,682.813 h 63.153 v -10.461 h -63.153 z"
       style="fill:#1d1d1b;fill-opacity:1;fill-rule:nonzero;stroke:none"
       id="path141" /><g
       id="g143"
       transform="translate(234.7568,641.6237)"><path
         d="M 0,0 H 11.993 L 33.602,46.526 55.779,0 H 68.014 L 33.507,71.839 Z"
         style="fill:#1d1d1b;fill-opacity:1;fill-rule:nonzero;stroke:none"
         id="path145" /></g><g
       id="g147"
       transform="translate(350.4092,713.4625)"><path
         d="M 0,0 H -11.993 L -33.602,-46.526 -55.779,0 h -12.234 l 34.506,-71.839 z"
         style="fill:#1d1d1b;fill-opacity:1;fill-rule:nonzero;stroke:none"
         id="path149" /></g><g
       id="g151"
       transform="translate(442.8779,641.6237)"><path
         d="M 0,0 H -10.88 V 71.916 L 40.937,24.397 V 71.892 H 51.712 V 0.056 L -0.221,47.045 Z"
         style="fill:#1d1d1b;fill-opacity:1;fill-rule:nonzero;stroke:none"
         id="path153" /></g></g></svg>
