<?xml version="1.0" encoding="UTF-8" standalone="no"?>
<!-- Created with Inkscape (http://www.inkscape.org/) -->

<svg
   width="210mm"
   height="297mm"
   viewBox="0 0 210 297"
   version="1.1"
   id="svg1490"
   inkscape:version="1.1.1 (3bf5ae0d25, 2021-09-20)"
   sodipodi:docname="ikony.svg"
   xmlns:inkscape="http://www.inkscape.org/namespaces/inkscape"
   xmlns:sodipodi="http://sodipodi.sourceforge.net/DTD/sodipodi-0.dtd"
   xmlns="http://www.w3.org/2000/svg"
   xmlns:svg="http://www.w3.org/2000/svg">
  <sodipodi:namedview
     id="namedview1492"
     pagecolor="#ffffff"
     bordercolor="#666666"
     borderopacity="1.0"
     inkscape:pageshadow="2"
     inkscape:pageopacity="0.0"
     inkscape:pagecheckerboard="0"
     inkscape:document-units="mm"
     showgrid="false"
     inkscape:zoom="0.52410025"
     inkscape:cx="451.24955"
     inkscape:cy="58.194974"
     inkscape:window-width="1920"
     inkscape:window-height="1017"
     inkscape:window-x="1912"
     inkscape:window-y="-8"
     inkscape:window-maximized="1"
     inkscape:current-layer="layer1" />
  <defs
     id="defs1487" />
  <g
     inkscape:label="Vrstva 1"
     inkscape:groupmode="layer"
     id="layer1">
    <g
       id="g1557"
       transform="matrix(2.9938392,0,0,2.9938392,117.01484,20.212392)"
       style="fill:none;fill-rule:evenodd;stroke:none;stroke-width:1"
       inkscape:export-filename="D:\MP2021-22\icon_people.png"
       inkscape:export-xdpi="96"
       inkscape:export-ydpi="96">
      <polygon
         id="Path"
         points="24,0 24,24 0,24 0,0 " />
      <path
         d="m 16,11 c 1.66,0 2.99,-1.34 2.99,-3 0,-1.66 -1.33,-3 -2.99,-3 -1.66,0 -3,1.34 -3,3 0,1.66 1.34,3 3,3 z M 8,11 C 9.66,11 10.99,9.66 10.99,8 10.99,6.34 9.66,5 8,5 6.34,5 5,6.34 5,8 c 0,1.66 1.34,3 3,3 z m 0,2 C 5.67,13 1,14.17 1,16.5 V 18 c 0,0.55 0.45,1 1,1 h 12 c 0.55,0 1,-0.45 1,-1 V 16.5 C 15,14.17 10.33,13 8,13 Z m 8,0 c -0.29,0 -0.62,0.02 -0.97,0.05 0.02,0.01 0.03,0.03 0.04,0.04 1.14,0.83 1.93,1.94 1.93,3.41 V 18 c 0,0.35 -0.07,0.69 -0.18,1 H 22 c 0.55,0 1,-0.45 1,-1 V 16.5 C 23,14.17 18.33,13 16,13 Z"
         id="🔹-Icon-Color"
         fill="#1d1d1d"
         style="stroke:none;stroke-opacity:1;fill:#af7777;fill-opacity:0.67000002"
         inkscape:export-filename="C:\Users\Tomáš\🔹-Icon-Color.png"
         inkscape:export-xdpi="96"
         inkscape:export-ydpi="96" />
    </g>
    <g
       id="g1622"
       transform="matrix(0.77428106,0,0,0.77428106,84.697635,109.02757)"
       inkscape:export-filename="D:\MP2021-22\icon_bulb.png"
       inkscape:export-xdpi="96"
       inkscape:export-ydpi="96"
       style="fill:#af7777;fill-opacity:0.67000002">
      <path
         d="m 50.75974,112.2752 a 6.3263,6.3263 0 0 0 6.32631,6.32631 h 15.04817 a 6.32629,6.32629 0 0 0 6.32626,-6.32631 V 92.48564 H 50.75974 Z"
         id="path1590"
         style="fill:#af7777;fill-opacity:0.67000002" />
      <path
         d="M 53.6986,16.29627 C 42.8956,20.71345 36.57826,28.99948 34.50988,40.41309 a 30.274,30.274 0 0 0 4.56045,22.52807 c 1.93751,2.978 4.442,5.58219 6.55411,8.45421 a 29.99164,29.99164 0 0 1 5.40145,12.90885 h 9.38 l 5.48806,-18.0453 -9.4801,0.10514 A 5.23027,5.23027 0 0 1 51.0617,61.62759 5.04724,5.04724 0 0 1 51.88303,58.51137 L 67.90291,34.11045 a 1.35549,1.35549 0 0 1 2.43032,1.13709 L 64.22108,55.417 73.63419,55.5213 A 5.03947,5.03947 0 0 1 78.68,60.14407 4.87488,4.87488 0 0 1 77.88653,63.10695 L 64,84.30422 h 14.71251 a 6.5839,6.5839 0 0 1 0.09346,-0.785 30.6629,30.6629 0 0 1 7.37648,-15.14542 31.83368,31.83368 0 0 0 6.959,-10.965 C 97.39664,44.8489 95.3033,33.479 86.21358,23.6727 A 29.32917,29.32917 0 0 0 53.6986,16.29627 Z"
         id="path1592"
         style="fill:#af7777;fill-opacity:0.67000002" />
      <rect
         x="105.46872"
         y="39.95718"
         width="20.86319"
         height="10.6519"
         rx="5.3257899"
         id="rect1594"
         style="fill:#af7777;fill-opacity:0.67000002" />
      <path
         d="m 115.47956,71.22709 -9.30937,-5.37333 a 5.32581,5.32581 0 1 0 -5.32471,9.2252 l 9.30943,5.37333 a 5.3257913,5.3257913 0 0 0 5.32465,-9.2252 z"
         id="path1596"
         style="fill:#af7777;fill-opacity:0.67000002" />
      <path
         d="m 98.89494,22.06278 a 5.32579,5.32579 0 0 0 7.27431,1.95194 l 8.10581,-4.67581 a 5.32579,5.32579 0 0 0 1.952,-7.27462 l -3.1e-4,-4.6e-4 a 5.32578,5.32578 0 0 0 -7.27431,-1.95194 l -8.10581,4.67575 a 5.32588,5.32588 0 0 0 -1.952,7.27467 z"
         id="path1598"
         style="fill:#af7777;fill-opacity:0.67000002" />
      <rect
         x="1.66809"
         y="39.95718"
         width="20.863251"
         height="10.6519"
         rx="5.3257899"
         id="rect1600"
         style="fill:#af7777;fill-opacity:0.67000002" />
      <path
         d="m 13.725,19.33891 8.10581,4.67581 a 5.3258,5.3258 0 0 0 7.27431,-1.95194 l 2.6e-4,-4.7e-4 a 5.32584,5.32584 0 0 0 -1.952,-7.27467 l -8.10581,-4.67575 a 5.32581,5.32581 0 0 0 -7.27431,1.95194 l -2.6e-4,4.6e-4 a 5.32574,5.32574 0 0 0 1.952,7.27462 z"
         id="path1602"
         style="fill:#af7777;fill-opacity:0.67000002" />
      <path
         d="M 38.82125,76.38205 C 38.09483,75.39457 37.25617,74.37522 36.3681,73.29666 a 62.83179,62.83179 0 0 1 -4.36788,-5.75535 q -1.085,-1.66983 -1.98733,-3.40011 l -18.36329,31.80604 8.21722,-0.10954 7.63615,4.40872 4.01373,7.17115 11.49969,-19.91815 -0.30346,-1.76695 a 21.63249,21.63249 0 0 0 -3.89168,-9.35042 z"
         id="path1604"
         style="fill:#af7777;fill-opacity:0.67000002" />
      <path
         d="m 18.84166,109.614 -2.75625,-1.59135 -4.15544,0.0539 a 2.44874,2.44874 0 0 1 -0.31648,-0.012 l -0.44839,8.89933 a 1.55629,1.55629 0 0 0 2.39965,1.385 l 7.47274,-4.83443 c -0.05755,-0.0871 -0.11115,-0.181 -0.16481,-0.27482 z"
         id="path1606"
         style="fill:#af7777;fill-opacity:0.67000002" />
    </g>
  </g>
</svg>
