<svg xmlns="http://www.w3.org/2000/svg" width="308.252" height="330.796" viewBox="0 0 308.252 330.796">
  <path id="recycle" d="M305.109,224.736l-13.642-24.565-29.331,16.31L275.762,241a16.447,16.447,0,0,1,1.51,12.82,16.578,16.578,0,0,1-1.745,3.943,16.78,16.78,0,0,1-5.823,5.906,16.41,16.41,0,0,1-8.608,2.3h-77.2V232.4l-67.118,50.339,67.118,50.339V299.523h77.2a50.917,50.917,0,0,0,13.608-1.829,50.264,50.264,0,0,0,29.784-22.971,50.2,50.2,0,0,0,5.638-37.167,53.075,53.075,0,0,0-5.017-12.82ZM47.343,149.162,8.582,226.683A51.345,51.345,0,0,0,4.2,239.351a50.285,50.285,0,0,0,49.416,60.171h29.6V265.964h-29.6a17.048,17.048,0,0,1-8.39-2.181,16.343,16.343,0,0,1-5.923-5.856,16.78,16.78,0,0,1-2.5-7.853,15.655,15.655,0,0,1,.3-4.111,17.9,17.9,0,0,1,1.493-4.3l37.855-75.709,26.83,15.487L93.251,98.169,16.1,131.124Zm213.7,32.3,10.034-83.293L243.6,114.025l-47.7-85.861a49.5,49.5,0,0,0-32.1-24.481,54.148,54.148,0,0,0-12.954-1.393A50.389,50.389,0,0,0,125.7,9.556a49.785,49.785,0,0,0-18.827,20.555L94.594,54.676l30.019,15.018,12.283-24.582a17.766,17.766,0,0,1,2.785-4.061,15.655,15.655,0,0,1,7.433-4.53,17.669,17.669,0,0,1,8.893-.185,16.159,16.159,0,0,1,10.571,8.138l47.956,86.347-30.639,17.686Z" transform="translate(-3.233 -2.286)" fill="#fff"/>
</svg>
