<svg xmlns="http://www.w3.org/2000/svg" width="454.491" height="451.927" viewBox="0 0 454.491 451.927">
  <path id="cotton" d="M146.507,115.11a100.555,100.555,0,0,1,26.037,21.379c10.833,12.29,28.59,45.178,16.488,56.211-4.728-13.9-21.1-34.226-29.992-44.311s-21.578-18.9-52.738-28.575-69.148,19.9-76.52,51.505c-2.914,12.495.51,28.852,8.485,46.326s20.208,35.816,32.984,52.318q4.612,5.952,9.41,11.756C99.644,286,118.1,297.147,136.47,308.349c20.962,12.787,41.92,25.934,61.137,31.946,5.485-36.352,27.15-69.3,61.484-97.972L270.257,233l3.36,14.155c7.24,30.507,11.35,65.134-1.391,99.884,40.212-3.17,90.187-3.23,131.7,10.72,15.05-13.313,25.29-25.987,17.26-43.76-51.41,12.81-96.615-21.713-110.274-43.09,35.856,22.168,58.87,35.061,96.428,27.488,29.382-7.439,56.674-9.419,65.94-39.385,16.521-53.932,14.432-125.682-21.018-166.254-17.638-20.186-39.924-35.822-62.8-41.017s-46.394-.887-66.583,16.1-29.956,33.382-33.648,48.041,8.225,45.176,10.042,52.874c-19.041-15.644-32.472-37.512-27.495-57.27,4.468-17.742,15.862-34.6,30.91-47.748-6.982-14.43-19.913-23.282-34.713-28.453C206.37,18.51,133.506,41.157,146.507,115.11ZM259.232,266.342c-27.875,26.527-43.112,55.04-44.983,85.74l-.619,10.162-10.01-1.86c-27.054-5.03-52.438-21.976-76.523-36.667-16.28-9.93-31.842-18.507-45.717-22.818,10.695,15.8,22.65,33.306,38.1,49.05,21.19,21.6,46.663,37.6,79.838,35.8l14.314-.773C199.981,416.432,190.7,451.153,190.81,479l15.4,2.96c6.81-36.11,13.4-62.107,29.9-86.911,52.267,7.413,107.26-4.614,147.467-24.219-39.9-9.577-88.254-8.25-124.73-4.54l-16.412,1.667,7.48-14.7c14.8-29.092,14.524-58.461,9.31-86.916Z" transform="translate(-28.754 -30.037)" fill="#fff"/>
</svg>
