<svg xmlns="http://www.w3.org/2000/svg" width="200" height="200" viewBox="0 0 200 200">
  <g id="Logo_bílé" transform="translate(-718.442 -676.14)">
    <g id="g64" transform="translate(718.442 676.14)">
      <path id="path66" d="M.886,1.727A93.607,93.607,0,0,1-92.721-91.878,93.607,93.607,0,0,1,.886-185.485,93.606,93.606,0,0,1,94.492-91.878,93.605,93.605,0,0,1,.886,1.727M1.6-191.878a100,100,0,0,0-100,100,100,100,0,0,0,100,100,100,100,0,0,0,100-100,100,100,0,0,0-100-100" transform="translate(98.398 191.878)" fill="#fff"/>
    </g>
    <g id="g68" transform="translate(754.477 734.27)">
      <path id="path70" d="M0,1.078H13.98L39.168-53.155,65.018,1.078H79.279L39.057-82.661Z" transform="translate(0 82.661)" fill="#fff"/>
    </g>
    <g id="g72" transform="translate(803.128 734.27)">
      <path id="path74" d="M1.021,0h-13.98L-38.148,54.233-64,0h-14.26l40.222,83.739Z" transform="translate(78.258)" fill="#fff"/>
    </g>
  </g>
</svg>
