<svg xmlns="http://www.w3.org/2000/svg" width="200" height="200" viewBox="0 0 200 200">
  <g id="Logo_barevné" transform="translate(-595.252 -78.16)">
    <g id="g36" transform="translate(595.252 78.16)">
      <path id="path38" d="M.955.477a100,100,0,0,1-100,100,100,100,0,0,1-100-100,100,100,0,0,1,100-100,100,100,0,0,1,100,100" transform="translate(199.045 99.524)" fill="#1d1d1b"/>
    </g>
    <g id="g40" transform="translate(601.659 84.568)">
      <path id="path42" d="M.867.433A93.592,93.592,0,0,1-92.726,94.024,93.592,93.592,0,0,1-186.32.433,93.593,93.593,0,0,1-92.726-93.16,93.593,93.593,0,0,1,.867.433" transform="translate(186.32 93.16)" fill="#e52520"/>
    </g>
    <g id="g44" transform="translate(630.975 136.371)">
      <path id="path46" d="M0,.573H13.953l25.14-54.129L64.9.573H79.127L38.983-83.008Z" transform="translate(0 83.008)" fill="#fff"/>
    </g>
    <g id="g48" transform="translate(679.687 136.371)">
      <path id="path50" d="M.542,0H-13.412L-38.551,54.129-64.353,0H-78.586l40.146,83.58Z" transform="translate(78.586)" fill="#1d1d1b"/>
    </g>
  </g>
</svg>
